<svg xmlns="http://www.w3.org/2000/svg" width="256" height="256" viewBox="0 0 100 100"><rect width="100" height="100" rx="20" fill="#2563eb"></rect><path d="M17.02 52.99L16.75 51.96L14.03 51.96Q13.88 52.50 13.77 52.96Q13.66 53.43 13.55 53.83L13.55 53.83Q13.34 53.91 13.11 53.96Q12.88 54.01 12.55 54.01L12.55 54.01Q11.78 54.01 11.41 53.75Q11.05 53.49 11.05 53.02L11.05 53.02Q11.05 52.81 11.11 52.60Q11.17 52.39 11.24 52.11L11.24 52.11Q11.35 51.70 11.53 51.09Q11.72 50.49 11.95 49.79Q12.17 49.09 12.43 48.36Q12.68 47.64 12.91 46.98Q13.13 46.33 13.32 45.81Q13.51 45.30 13.61 45.03L13.61 45.03Q13.87 44.88 14.38 44.74Q14.90 44.61 15.43 44.61L15.43 44.61Q16.18 44.61 16.75 44.82Q17.33 45.04 17.50 45.52L17.50 45.52Q17.77 46.29 18.08 47.32Q18.40 48.36 18.71 49.46Q19.03 50.56 19.33 51.63Q19.63 52.71 19.85 53.53L19.85 53.53Q19.67 53.74 19.31 53.87Q18.95 54.00 18.46 54.00L18.46 54.00Q17.72 54.00 17.44 53.76Q17.15 53.52 17.02 52.99L17.02 52.99ZM15.50 46.96L15.41 46.96Q15.20 47.58 14.95 48.33Q14.69 49.08 14.45 49.93L14.45 49.93L16.31 49.93Q16.10 49.08 15.88 48.32Q15.67 47.56 15.50 46.96L15.50 46.96ZM23.71 53.83L23.71 53.83Q23.54 53.88 23.20 53.92Q22.85 53.97 22.49 53.97L22.49 53.97Q21.70 53.97 21.39 53.70Q21.08 53.43 21.08 52.72L21.08 52.72L21.08 44.73Q21.26 44.70 21.61 44.64Q21.95 44.59 22.30 44.59L22.30 44.59Q23.05 44.59 23.38 44.85Q23.71 45.10 23.71 45.84L23.71 45.84L23.71 48.27L26.59 48.27L26.59 44.73Q26.77 44.70 27.11 44.64Q27.46 44.59 27.80 44.59L27.80 44.59Q28.55 44.59 28.88 44.86Q29.21 45.13 29.21 45.87L29.21 45.87L29.21 53.83Q29.05 53.88 28.70 53.92Q28.36 53.97 28.00 53.97L28.00 53.97Q27.20 53.97 26.89 53.70Q26.59 53.43 26.59 52.72L26.59 52.72L26.59 50.34L23.71 50.34L23.71 53.83ZM33.74 45.48L33.74 45.48Q33.74 45.82 33.73 46.42Q33.71 47.02 33.66 47.72Q33.62 48.42 33.55 49.12Q33.47 49.83 33.37 50.38L33.37 50.38Q33.30 50.43 33.19 50.47Q33.07 50.52 32.93 50.55Q32.80 50.58 32.66 50.59Q32.53 50.61 32.42 50.61L32.42 50.61Q31.99 50.61 31.69 50.47Q31.40 50.34 31.33 49.95L31.33 49.95Q31.25 49.60 31.20 48.95Q31.15 48.30 31.10 47.54Q31.06 46.78 31.03 46.02Q31.01 45.25 31.01 44.68L31.01 44.68Q31.31 44.52 31.69 44.42Q32.08 44.32 32.45 44.32L32.45 44.32Q33.07 44.32 33.40 44.61Q33.74 44.89 33.74 45.48ZM30.98 52.71L30.98 52.71Q30.98 52.08 31.36 51.69Q31.75 51.30 32.42 51.30L32.42 51.30Q33.09 51.30 33.48 51.69Q33.86 52.08 33.86 52.71L33.86 52.71Q33.86 53.34 33.48 53.73Q33.09 54.12 32.42 54.12L32.42 54.12Q31.75 54.12 31.36 53.73Q30.98 53.34 30.98 52.71ZM39.94 53.68L39.94 53.29Q39.63 53.41 39.27 53.48Q38.90 53.55 38.45 53.55L38.45 53.55Q37.77 53.55 37.17 53.36Q36.56 53.17 36.10 52.74Q35.65 52.32 35.38 51.64Q35.11 50.97 35.11 49.99L35.11 49.99Q35.11 49.09 35.38 48.41Q35.66 47.73 36.16 47.26Q36.66 46.80 37.38 46.56Q38.11 46.33 38.99 46.33L38.99 46.33Q39.41 46.33 39.81 46.39Q40.22 46.45 40.57 46.56Q40.92 46.66 41.21 46.78Q41.50 46.90 41.69 47.04L41.69 47.04Q41.99 47.25 42.16 47.51Q42.34 47.77 42.34 48.18L42.34 48.18L42.34 53.74Q42.34 54.54 42.04 55.11Q41.75 55.69 41.23 56.07Q40.72 56.46 40.02 56.64Q39.32 56.82 38.52 56.82L38.52 56.82Q37.72 56.82 37.10 56.69Q36.48 56.56 36.13 56.32L36.13 56.32Q35.59 55.96 35.59 55.30L35.59 55.30Q35.59 54.96 35.73 54.67Q35.87 54.39 36.05 54.25L36.05 54.25Q36.48 54.49 37.03 54.66Q37.58 54.82 38.18 54.82L38.18 54.82Q38.98 54.82 39.45 54.55Q39.94 54.28 39.94 53.68L39.94 53.68ZM38.93 51.64L38.93 51.64Q39.23 51.64 39.46 51.57Q39.70 51.51 39.89 51.39L39.89 51.39L39.89 48.51Q39.73 48.43 39.55 48.38Q39.38 48.33 39.09 48.33L39.09 48.33Q38.45 48.33 38.05 48.72Q37.64 49.12 37.64 50.01L37.64 50.01Q37.64 50.95 38.01 51.30Q38.38 51.64 38.93 51.64ZM51.45 50.20L51.45 50.20Q51.45 51.10 51.18 51.82Q50.90 52.54 50.38 53.04Q49.87 53.55 49.15 53.82Q48.43 54.09 47.53 54.09L47.53 54.09Q46.63 54.09 45.91 53.82Q45.19 53.56 44.67 53.06Q44.15 52.56 43.87 51.84Q43.60 51.12 43.60 50.20L43.60 50.20Q43.60 49.32 43.88 48.60Q44.16 47.88 44.68 47.38Q45.20 46.87 45.92 46.60Q46.64 46.33 47.53 46.33L47.53 46.33Q48.41 46.33 49.13 46.61Q49.85 46.89 50.37 47.39Q50.89 47.89 51.17 48.61Q51.45 49.33 51.45 50.20ZM47.53 48.33L47.53 48.33Q46.90 48.33 46.55 48.81Q46.21 49.30 46.21 50.20L46.21 50.20Q46.21 51.15 46.55 51.62Q46.90 52.09 47.53 52.09L47.53 52.09Q48.16 52.09 48.50 51.61Q48.84 51.13 48.84 50.20L48.84 50.20Q48.84 49.30 48.50 48.81Q48.16 48.33 47.53 48.33ZM55.25 48.70L55.25 53.83Q55.09 53.88 54.78 53.92Q54.47 53.97 54.11 53.97L54.11 53.97Q53.36 53.97 53.03 53.72Q52.70 53.47 52.70 52.77L52.70 52.77L52.70 48.31Q52.70 47.88 52.93 47.55Q53.15 47.23 53.54 46.99L53.54 46.99Q54.07 46.68 54.76 46.51Q55.46 46.35 56.23 46.35L56.23 46.35Q57.86 46.35 57.86 47.50L57.86 47.50Q57.86 47.77 57.79 48.00Q57.71 48.24 57.61 48.40L57.61 48.40Q57.32 48.34 56.78 48.34L56.78 48.34Q56.39 48.34 55.98 48.43Q55.57 48.52 55.25 48.70L55.25 48.70ZM58.93 52.77L58.93 46.66Q59.09 46.62 59.40 46.57Q59.70 46.53 60.06 46.53L60.06 46.53Q60.81 46.53 61.15 46.77Q61.48 47.02 61.48 47.73L61.48 47.73L61.48 53.83Q61.31 53.88 61.00 53.92Q60.70 53.97 60.34 53.97L60.34 53.97Q59.59 53.97 59.26 53.72Q58.93 53.47 58.93 52.77L58.93 52.77ZM58.80 44.53L58.80 44.53Q58.80 43.96 59.19 43.57Q59.57 43.18 60.20 43.18L60.20 43.18Q60.83 43.18 61.21 43.57Q61.59 43.96 61.59 44.53L61.59 44.53Q61.59 45.10 61.21 45.49Q60.83 45.88 60.20 45.88L60.20 45.88Q59.57 45.88 59.19 45.49Q58.80 45.10 58.80 44.53ZM65.87 54.07L65.87 54.07Q64.55 54.07 63.84 53.47Q63.13 52.87 63.13 51.52L63.13 51.52L63.13 44.86Q63.29 44.82 63.60 44.77Q63.91 44.71 64.25 44.71L64.25 44.71Q64.98 44.71 65.31 44.97Q65.64 45.22 65.64 45.91L65.64 45.91L65.64 46.72L67.61 46.72Q67.70 46.89 67.78 47.13Q67.86 47.38 67.86 47.68L67.86 47.68Q67.86 48.21 67.63 48.44Q67.40 48.67 67.01 48.67L67.01 48.67L65.64 48.67L65.64 51.34Q65.64 51.73 65.89 51.90Q66.14 52.06 66.59 52.06L66.59 52.06Q66.81 52.06 67.05 52.02Q67.30 51.99 67.47 51.93L67.47 51.93Q67.61 52.09 67.71 52.29Q67.80 52.50 67.80 52.78L67.80 52.78Q67.80 53.35 67.38 53.71Q66.95 54.07 65.87 54.07ZM76.25 53.83L76.25 53.83Q76.08 53.88 75.78 53.92Q75.47 53.97 75.11 53.97L75.11 53.97Q74.36 53.97 74.03 53.72Q73.70 53.47 73.70 52.77L73.70 52.77L73.70 49.44Q73.70 48.82 73.39 48.57Q73.08 48.33 72.63 48.33L72.63 48.33Q72.33 48.33 72.09 48.40Q71.84 48.48 71.63 48.60L71.63 48.60L71.63 53.83Q71.46 53.88 71.16 53.92Q70.85 53.97 70.49 53.97L70.49 53.97Q69.74 53.97 69.41 53.72Q69.08 53.47 69.08 52.77L69.08 52.77L69.08 44.07Q69.24 44.02 69.55 43.98Q69.86 43.93 70.22 43.93L70.22 43.93Q70.97 43.93 71.30 44.18Q71.63 44.43 71.63 45.13L71.63 45.13L71.63 46.62Q71.93 46.50 72.30 46.41Q72.68 46.33 73.11 46.33L73.11 46.33Q74.60 46.33 75.42 47.07Q76.25 47.82 76.25 49.29L76.25 49.29L76.25 53.83ZM88.95 49.11L88.95 53.83Q88.79 53.88 88.48 53.92Q88.17 53.97 87.81 53.97L87.81 53.97Q87.06 53.97 86.73 53.72Q86.41 53.47 86.41 52.77L86.41 52.77L86.41 49.18Q86.41 48.73 86.17 48.53Q85.92 48.33 85.53 48.33L85.53 48.33Q85.28 48.33 85.05 48.42Q84.81 48.51 84.65 48.63L84.65 48.63Q84.65 48.69 84.66 48.74Q84.67 48.79 84.67 48.84L84.67 48.84L84.67 53.83Q84.50 53.88 84.19 53.92Q83.89 53.97 83.53 53.97L83.53 53.97Q82.78 53.97 82.45 53.72Q82.11 53.47 82.11 52.77L82.11 52.77L82.11 49.18Q82.11 48.73 81.85 48.53Q81.59 48.33 81.22 48.33L81.22 48.33Q80.93 48.33 80.72 48.41Q80.51 48.49 80.38 48.57L80.38 48.57L80.38 53.83Q80.21 53.88 79.90 53.92Q79.59 53.97 79.23 53.97L79.23 53.97Q78.48 53.97 78.16 53.72Q77.83 53.47 77.83 52.77L77.83 52.77L77.83 48.25Q77.83 47.85 78.00 47.59Q78.17 47.34 78.47 47.13L78.47 47.13Q78.98 46.77 79.73 46.55Q80.48 46.33 81.32 46.33L81.32 46.33Q81.94 46.33 82.50 46.50Q83.06 46.66 83.56 47.01L83.56 47.01Q84.00 46.72 84.57 46.53Q85.13 46.33 85.92 46.33L85.92 46.33Q86.50 46.33 87.04 46.48Q87.59 46.63 88.02 46.95Q88.45 47.28 88.70 47.81Q88.95 48.34 88.95 49.11L88.95 49.11Z" fill="#fff"></path></svg>
